<?xml version="1.0" standalone="no"?>
<!DOCTYPE svg PUBLIC "-//W3C//DTD SVG 20010904//EN"
 "http://www.w3.org/TR/2001/REC-SVG-20010904/DTD/svg10.dtd">
<svg version="1.0" xmlns="http://www.w3.org/2000/svg"
 width="416.000000pt" height="480.000000pt" viewBox="0 0 416.000000 480.000000"
 preserveAspectRatio="xMidYMid meet">

<g transform="translate(0.000000,480.000000) scale(0.100000,-0.100000)"
fill="#000000" stroke="none">
<path d="M2225 4789 c-226 -17 -506 -83 -718 -171 -91 -38 -137 -72 -137 -102
0 -6 4 -5 9 3 6 9 11 10 15 2 4 -6 11 -9 15 -7 12 8 4 -95 -9 -108 -8 -8 -9
-6 -5 7 4 9 3 17 -2 17 -5 0 -9 -10 -10 -22 0 -13 -2 -30 -5 -38 -3 -8 -3 -12
-1 -7 3 4 9 5 14 2 5 -4 51 13 101 36 184 83 417 150 633 181 134 19 465 16
600 -6 461 -73 841 -256 1178 -565 82 -75 92 -81 132 -81 60 0 95 36 95 98 0
44 -3 49 -67 110 -409 384 -913 607 -1477 652 -143 11 -199 11 -361 -1z m-811
-244 c-4 -8 -11 -15 -16 -15 -6 0 -5 6 2 15 7 8 14 15 16 15 2 0 1 -7 -2 -15z
m0 -160 c-4 -8 -11 -15 -16 -15 -6 0 -5 6 2 15 7 8 14 15 16 15 2 0 1 -7 -2
-15z"/>
<path d="M1386 4494 c-4 -9 -1 -23 5 -30 13 -16 -1 -19 -19 -4 -7 5 -5 2 3 -7
12 -14 17 -15 27 -4 10 11 10 14 1 18 -7 3 -13 9 -13 14 0 6 4 7 10 4 6 -3 7
1 4 9 -8 20 -10 20 -18 0z"/>
<path d="M2215 3983 c-125 -16 -352 -79 -434 -121 -19 -9 -41 -28 -49 -42 -14
-24 -14 -24 3 -5 16 18 17 18 11 2 -3 -10 -6 -26 -7 -35 0 -11 -2 -12 -6 -4
-2 6 -10 12 -16 12 -7 -1 -2 -9 11 -20 20 -17 21 -20 6 -34 -8 -9 -13 -16 -9
-16 3 0 1 -8 -4 -18 -7 -14 -6 -19 4 -19 7 0 11 6 8 13 -2 6 -1 14 4 17 4 3 9
-11 9 -30 1 -19 -2 -30 -6 -23 -5 8 -9 7 -13 -5 -4 -9 -3 -13 3 -10 6 3 10 2
10 -4 0 -5 33 6 73 24 329 152 719 172 1055 54 176 -63 325 -151 478 -284 92
-81 117 -89 174 -60 33 17 54 70 44 109 -7 30 -107 126 -208 200 -285 209
-593 308 -949 305 -89 -1 -175 -4 -192 -6z"/>
<path d="M2330 3184 c-14 -2 -52 -9 -85 -15 -122 -22 -275 -102 -377 -197
-101 -94 -190 -249 -225 -389 -22 -91 -22 -275 0 -366 70 -286 298 -514 584
-584 91 -22 275 -22 366 0 286 70 514 298 584 584 22 91 22 275 0 366 -34 139
-124 295 -223 387 -99 92 -234 166 -356 195 -66 15 -225 27 -268 19z m260
-203 c186 -58 343 -217 403 -406 31 -98 31 -252 0 -350 -60 -191 -217 -347
-408 -408 -54 -17 -95 -22 -175 -22 -171 0 -310 57 -428 176 -256 258 -236
666 45 900 63 52 172 106 253 124 85 19 224 13 310 -14z"/>
<path d="M3851 2606 c-14 -8 -28 -22 -32 -32 -9 -23 -11 -310 -3 -342 14 -50
119 -70 168 -31 l26 20 0 179 0 179 -26 20 c-31 24 -96 28 -133 7z"/>
<path d="M3346 1365 c-255 -222 -530 -336 -866 -360 -191 -13 -445 33 -630
115 -100 44 -140 58 -128 45 4 -4 3 -15 -2 -25 -6 -12 -5 -17 5 -17 7 0 11 6
8 13 -2 6 -1 14 4 17 8 5 9 -22 4 -83 -2 -14 -5 -19 -8 -12 -2 6 -10 12 -16
12 -7 -1 -2 -9 11 -20 18 -15 20 -21 9 -32 -25 -26 -14 -52 33 -75 64 -31 210
-79 315 -104 131 -30 421 -38 567 -15 321 51 611 190 841 405 36 34 68 73 71
87 10 39 -11 92 -44 109 -57 29 -82 21 -174 -60z m-1600 -385 c0 -12 -4 -16
-9 -11 -5 5 -6 14 -3 20 10 15 12 14 12 -9z"/>
<path d="M1726 1093 c-6 -14 -5 -15 5 -6 7 7 10 15 7 18 -3 3 -9 -2 -12 -12z"/>
<path d="M3917 801 c-208 -193 -428 -335 -673 -435 -552 -226 -1183 -218
-1722 21 -99 44 -103 45 -118 27 -12 -17 -13 -17 -8 -2 3 10 2 18 -3 18 -5 0
-9 -10 -10 -22 0 -13 -4 -32 -8 -43 -5 -14 -4 -16 3 -6 7 9 12 10 16 2 4 -6
11 -9 15 -7 12 8 4 -95 -9 -108 -8 -8 -9 -6 -5 7 4 9 3 17 -2 17 -5 0 -10 -7
-10 -16 0 -36 313 -152 532 -197 375 -78 721 -71 1095 23 383 96 753 301 1053
582 64 61 67 66 67 110 0 62 -35 98 -96 98 -39 0 -49 -6 -117 -69z m-2503
-416 c-4 -8 -11 -15 -16 -15 -6 0 -5 6 2 15 7 8 14 15 16 15 2 0 1 -7 -2 -15z"/>
<path d="M1386 334 c-4 -9 -1 -23 5 -30 13 -16 -1 -19 -19 -4 -7 5 -5 2 3 -7
12 -14 17 -15 27 -4 10 11 10 14 1 18 -7 3 -13 9 -13 14 0 6 4 7 10 4 6 -3 7
1 4 9 -8 20 -10 20 -18 0z"/>
</g>
</svg>
